<?xml version="1.0" standalone="no"?>
<!DOCTYPE svg PUBLIC "-//W3C//DTD SVG 20010904//EN"
 "http://www.w3.org/TR/2001/REC-SVG-20010904/DTD/svg10.dtd">
<svg version="1.0" xmlns="http://www.w3.org/2000/svg"
 width="694.000000pt" height="698.000000pt" viewBox="0 0 694.000000 698.000000"
 preserveAspectRatio="xMidYMid meet">

<g transform="translate(0.000000,698.000000) scale(0.100000,-0.100000)"
fill="#000000" stroke="none">
<path d="M10 3495 l0 -3485 3460 0 3460 0 0 3485 0 3485 -3460 0 -3460 0 0
-3485z m1192 3216 c85 -33 148 -80 190 -142 67 -97 70 -115 75 -404 6 -318 -1
-382 -56 -475 -46 -77 -96 -120 -188 -161 l-67 -30 -315 3 -316 3 -62 29 c-72
33 -157 116 -191 187 -35 72 -42 143 -42 413 0 287 8 335 72 427 64 93 150
148 263 170 22 4 162 6 310 5 254 -2 273 -4 327 -25z m626 -63 l3 -88 169 0
170 0 0 78 c0 42 4 83 9 90 5 9 31 12 92 10 l84 -3 3 -87 3 -87 87 -3 87 -3 3
-177 2 -178 -177 -2 -178 -3 0 -80 0 -80 175 -5 175 -5 3 -87 3 -88 84 0 84 0
3 -87 3 -88 80 0 80 0 3 178 2 177 265 0 265 0 0 85 0 85 -85 0 -85 0 0 85 c0
102 13 96 -195 93 l-150 -3 -3 -87 -3 -88 -89 0 -90 0 0 90 0 90 85 0 85 0 0
180 0 180 180 0 180 0 0 -90 0 -90 90 0 90 0 0 -175 0 -175 350 0 350 0 0 175
0 174 88 3 87 3 1 85 2 85 91 3 91 3 0 -96 0 -95 -90 0 -91 0 3 -82 3 -83 88
-3 87 -3 0 -84 0 -85 175 0 176 0 -3 83 -3 82 -85 1 -85 2 -3 181 -2 182 91
-3 91 -3 2 -85 1 -85 173 -3 172 -2 0 90 0 90 90 0 90 0 0 -95 0 -95 -85 0
-85 0 0 -85 0 -85 84 0 85 0 3 -90 3 -90 -87 0 -87 0 -3 -87 -3 -88 -87 -3
-88 -3 0 -84 0 -85 178 0 177 0 0 -262 0 -263 263 -3 262 -2 1 -88 c0 -48 0
-130 0 -182 0 -52 0 -134 -1 -182 l0 -88 -85 0 -85 0 0 -170 0 -170 85 0 85 0
0 85 0 85 88 0 c48 1 166 2 262 3 l175 2 3 173 2 172 -85 0 -85 0 0 -90 0 -91
-92 3 -93 3 -3 93 -3 92 91 0 90 0 0 175 0 175 270 0 270 0 0 -90 0 -90 -177
-2 -178 -3 -3 -82 -3 -83 181 0 180 0 0 -96 0 -95 -87 2 -88 2 0 -84 0 -84 88
-3 87 -3 0 -89 0 -90 -95 0 -95 0 0 90 0 91 -82 -3 -83 -3 -3 -177 -2 -178
-85 0 -85 0 0 -85 0 -85 -90 0 -90 0 0 -180 0 -180 -90 0 -89 0 0 -170 0 -170
84 0 85 0 0 85 0 85 90 0 90 0 0 180 0 180 90 0 90 0 0 85 0 85 85 0 84 0 3
88 3 87 93 3 92 3 0 -90 0 -90 -87 -3 -88 -3 -3 -82 -3 -82 88 -3 88 -3 0 -90
0 -90 -178 -3 -178 -2 3 -83 3 -82 85 -2 c47 -1 127 -2 178 -2 l92 -1 0 -90 0
-90 -355 0 -355 0 0 -85 0 -85 175 0 175 0 0 -174 c0 -202 -8 -189 113 -186
40 1 111 2 160 1 l87 -1 0 -90 0 -90 -270 0 -270 0 0 175 0 175 -175 0 -175 0
0 -85 0 -85 -85 0 -85 0 0 -85 0 -85 85 0 85 0 0 -90 0 -90 265 0 265 0 1 -87
c0 -49 0 -127 -1 -175 l-1 -88 180 0 181 0 0 -90 0 -90 -85 -1 c-47 0 -130 0
-185 0 -55 0 -138 0 -185 0 l-85 1 0 175 0 175 -175 0 -175 0 0 -85 0 -85 90
0 90 0 0 -90 0 -90 -90 0 -90 0 0 85 0 85 -85 0 -85 0 0 -85 0 -84 -87 -3 -88
-3 -3 -82 -3 -83 531 0 530 0 0 -180 0 -180 90 0 90 0 0 -90 0 -89 -87 -3 -88
-3 -3 -82 -3 -82 88 -3 88 -3 0 -90 0 -90 -177 -3 -178 -2 0 -85 0 -84 -82 -3
-83 -3 -3 -88 -3 -88 -92 3 -92 3 -3 87 -3 88 -84 0 -85 0 0 85 0 85 -85 0
-85 0 0 -85 0 -84 -87 -3 -88 -3 -3 -87 -3 -87 -87 -3 -87 -3 0 -80 0 -80 88
-3 87 -3 0 -89 0 -90 -90 0 -90 0 0 85 0 85 -175 0 -175 0 0 -85 0 -85 -87 0
c-113 -1 -793 -1 -900 0 l-83 0 0 85 0 85 -85 0 -84 0 -3 88 -3 87 -177 3
-178 2 0 265 0 265 -85 0 -85 0 0 -90 0 -90 -84 0 -84 0 -4 -81 c-2 -44 -1
-83 1 -85 2 -2 42 -4 88 -4 l83 0 0 -175 0 -175 175 0 175 0 0 -90 0 -90 -85
0 c-47 -1 -128 -1 -180 -1 -52 0 -133 0 -180 1 l-85 0 0 85 0 85 -85 0 -85 0
0 -84 0 -85 -90 -3 c-50 -2 -131 -2 -180 0 l-90 3 0 265 0 264 90 0 90 0 0
-175 0 -175 85 0 85 0 0 260 0 260 -85 0 -84 0 -3 87 -3 88 -87 3 -87 3 -3 87
-3 87 -87 3 -88 3 0 84 0 85 -172 2 -173 3 -5 85 -5 85 -82 3 -82 3 -3 -88 -3
-88 -90 0 -90 0 -3 178 -2 178 -83 -3 -82 -3 -3 -87 -3 -88 -179 0 -180 0 0
90 0 90 -175 0 -175 0 0 90 0 90 -90 0 -90 0 0 85 0 85 -85 0 -85 0 0 -172 c1
-95 1 -215 1 -265 l-1 -93 -90 0 -90 0 0 355 0 355 74 0 c108 0 106 -2 106 96
l0 84 85 0 85 0 0 85 0 85 -85 0 -85 0 0 90 0 90 90 0 90 0 0 -85 0 -85 85 0
85 0 0 85 0 85 90 0 90 0 0 -85 0 -85 175 0 175 0 0 85 0 85 -90 0 -90 0 0 85
0 85 -350 0 -350 0 0 90 0 90 -90 0 -90 0 0 180 0 179 88 3 87 3 0 260 0 260
-87 3 -88 3 0 264 0 265 88 1 c48 1 126 0 175 -1 l87 -2 0 86 0 86 -175 0
-175 0 0 180 0 180 88 1 c48 1 126 0 175 -1 l87 -2 0 91 0 91 270 0 269 0 3
-87 3 -88 83 -3 82 -3 0 91 0 90 90 0 90 0 0 -90 0 -90 -85 0 -85 0 0 -85 0
-85 170 0 170 0 0 440 0 440 90 0 90 0 0 175 0 175 -90 0 -90 0 0 263 c0 145
3 267 7 271 4 4 46 5 93 4 l85 -3 3 -87z m2122 -88 l0 -180 -87 -1 c-49 0
-128 0 -178 0 l-90 0 -3 180 -2 181 180 0 180 0 0 -180z m2479 170 c160 -23
298 -150 331 -307 7 -33 10 -157 8 -345 l-3 -294 -34 -68 c-46 -90 -120 -156
-213 -190 -68 -26 -72 -26 -362 -26 -266 0 -298 2 -350 20 -109 37 -198 121
-242 228 -23 55 -24 65 -24 362 0 343 3 361 69 458 58 85 157 146 271 165 50
8 487 6 549 -3z m351 -4330 l0 -90 -95 0 -95 0 0 90 0 90 95 0 95 0 0 -90z
m-5602 -986 c105 -30 200 -110 250 -209 31 -63 42 -167 42 -412 0 -246 -12
-340 -50 -392 -11 -16 -20 -33 -20 -38 0 -22 -101 -105 -165 -135 l-70 -33
-271 -3 c-166 -2 -295 1 -330 7 -129 24 -241 110 -297 228 l-32 68 -3 280 c-3
186 0 300 8 340 26 136 132 252 267 295 82 27 584 29 671 4z m830 -246 l3 -88
172 -2 172 -3 0 -90 0 -90 -262 -3 -263 -2 0 -175 0 -175 -95 0 -95 0 2 268 3
267 88 3 87 3 0 83 c0 45 3 86 7 90 4 4 46 5 93 4 l85 -3 3 -87z m4772 -713
l0 -265 -87 0 c-102 -1 -779 -1 -901 0 l-82 0 2 178 3 177 87 3 87 3 3 -88 3
-88 348 -3 347 -2 0 175 0 175 95 0 95 0 0 -265z m-4422 -87 l2 -177 -90 -3
c-49 -2 -130 -2 -180 0 l-90 3 0 89 0 89 87 3 86 3 -2 77 c-1 43 1 83 4 88 4
7 41 10 93 8 l87 -3 3 -177z"/>
<path d="M605 6551 c-73 -18 -137 -69 -170 -134 -25 -50 -25 -53 -25 -296 0
-136 5 -262 10 -282 16 -57 79 -121 141 -144 48 -18 79 -20 294 -20 227 0 243
1 286 22 57 27 111 86 133 145 15 38 17 78 14 294 -3 249 -3 249 -30 294 -35
61 -63 85 -126 109 -48 19 -72 21 -275 20 -122 -1 -235 -4 -252 -8z m436 -186
c60 -32 69 -62 69 -242 0 -89 -4 -173 -9 -186 -6 -14 -27 -38 -47 -54 -37 -28
-39 -28 -195 -31 -143 -3 -161 -1 -198 17 -68 35 -76 61 -76 248 0 180 4 192
75 241 31 21 44 22 192 22 124 0 166 -3 189 -15z"/>
<path d="M4130 6195 c-1 -3 -1 -40 -1 -82 l-1 -78 84 0 83 0 0 80 0 80 -82 3
c-46 2 -83 0 -83 -3z"/>
<path d="M4302 5763 l3 -258 83 -3 82 -3 0 85 0 85 88 3 87 3 3 87 3 87 87 3
87 3 3 83 3 82 -266 0 -265 0 2 -257z"/>
<path d="M1830 5580 l0 -261 83 3 82 3 3 258 2 257 -85 0 -85 0 0 -260z"/>
<path d="M2182 5493 l3 -348 88 -3 87 -3 0 -84 0 -85 85 0 85 0 0 85 0 84 88
3 87 3 3 82 3 83 -178 2 -178 3 -3 263 -2 262 -85 0 -85 0 2 -347z"/>
<path d="M3070 5755 l0 -85 85 0 85 0 0 -85 0 -85 85 0 85 0 0 85 0 85 93 0
92 0 0 -82 0 -83 85 0 85 0 2 168 3 167 -350 0 -350 0 0 -85z"/>
<path d="M4832 5758 l3 -83 83 -3 82 -3 0 86 0 85 -85 0 -86 0 3 -82z"/>
<path d="M2540 5585 l0 -86 83 3 82 3 0 80 0 80 -82 3 -83 3 0 -86z"/>
<path d="M2890 5585 l0 -85 85 0 85 0 0 85 0 85 -85 0 -85 0 0 -85z"/>
<path d="M3957 5664 c-4 -4 -7 -85 -7 -181 l0 -173 -180 0 -180 0 0 90 0 90
-85 0 -85 0 0 -175 0 -175 -180 0 -180 0 0 85 0 85 -85 0 -85 0 0 -85 0 -85
-90 0 -90 0 0 -85 0 -85 180 0 181 0 -3 -92 -3 -93 -177 -3 -178 -2 0 90 0 90
-85 0 -84 0 -3 -87 -3 -88 -92 -3 -93 -3 0 91 0 90 -84 0 c-98 0 -98 1 -96 98
1 31 1 63 1 70 -1 9 -42 12 -171 12 l-170 0 -2 -177 -3 -178 -265 0 -265 0 -3
88 -3 87 -84 0 -85 0 0 -90 0 -90 -90 0 -91 0 3 -82 3 -83 88 -3 87 -3 0 -89
0 -90 -90 0 -90 0 0 -85 0 -85 90 0 90 0 0 -90 0 -89 -87 -3 -88 -3 -3 -87 -3
-88 -89 0 -90 0 0 175 0 175 -175 0 -176 0 3 -82 3 -83 88 -3 87 -3 0 -264 0
-265 85 0 85 0 0 90 0 90 180 0 180 0 0 -265 0 -265 173 2 172 3 0 80 0 80
-87 3 -88 3 0 89 0 89 88 3 87 3 3 83 3 82 -91 0 -90 0 0 95 0 95 90 0 91 0
-3 83 -3 82 -87 3 -88 3 0 89 0 90 180 0 180 0 0 -175 0 -174 88 -3 87 -3 0
-90 0 -90 -88 -3 -88 -3 3 -82 3 -82 88 -3 87 -3 0 -84 0 -85 75 0 c41 0 78 1
83 3 7 2 10 76 11 254 l1 92 86 3 86 3 0 80 0 80 -86 3 -86 3 0 92 0 92 86 0
86 0 -1 78 c0 42 0 80 0 85 -1 4 -38 7 -83 7 l-83 0 -3 92 -3 92 87 3 86 3 0
80 0 80 -86 3 -86 3 0 89 0 90 90 0 89 0 3 -87 3 -88 88 -3 87 -3 0 -84 0 -85
90 0 90 0 0 -89 c0 -104 3 -101 -106 -101 l-74 0 0 -85 0 -84 -87 -3 -88 -3
-3 -82 -3 -83 178 -2 178 -3 0 -90 0 -90 -178 -3 -178 -2 3 -83 3 -82 178 -3
178 -2 -3 -88 -3 -87 -262 -3 -263 -2 0 -85 0 -85 265 0 266 0 -3 -92 -3 -93
-87 -3 -88 -3 0 -85 0 -85 -92 3 -93 3 -2 75 c-1 41 -2 80 -2 85 -1 6 -35 10
-81 10 l-80 0 0 -263 0 -263 83 3 82 3 -3 67 c-6 108 -6 108 99 108 l89 0 0
-180 0 -181 83 3 82 3 3 88 3 87 89 0 90 0 0 -265 0 -265 85 0 85 0 0 175 0
174 88 3 87 3 3 88 3 87 179 0 180 0 0 -90 0 -90 -175 0 -175 0 0 -85 0 -85
85 0 85 0 0 -175 0 -175 85 0 85 0 0 85 0 85 90 0 90 0 0 90 0 90 91 0 91 0
-2 93 c-1 50 -2 129 -1 175 l1 82 181 0 180 0 -2 -81 c-1 -45 3 -85 8 -90 6
-6 43 -9 87 -7 l76 3 0 -352 0 -353 90 0 91 0 -3 -93 -3 -92 -70 -3 c-112 -5
-110 -7 -110 90 l0 83 -84 0 -83 0 -2 -85 -1 -85 -90 0 -90 0 -3 88 -3 87 -87
0 -87 0 3 157 c3 215 8 203 -82 203 -93 0 -99 -6 -94 -105 l3 -75 -87 0 -88 0
0 -175 0 -175 85 0 85 0 1 -87 c0 -49 1 -207 2 -353 l2 -265 88 -3 87 -3 0
-84 0 -85 178 -2 177 -3 1 -85 2 -85 83 0 84 0 0 173 0 172 270 0 270 0 0 -82
0 -83 173 -3 173 -2 -3 82 -3 83 -85 5 -85 5 -3 262 -2 262 -170 0 -170 0 0
-84 0 -85 84 0 85 0 3 -91 c2 -57 -1 -93 -7 -96 -6 -2 -87 -2 -180 -1 l-170 3
0 180 0 180 85 1 85 2 3 261 2 261 -90 0 -90 0 0 90 0 90 90 0 90 0 0 85 0 84
-87 3 -88 3 0 88 0 89 90 0 90 0 3 -86 3 -86 259 0 260 0 0 88 0 87 87 0 88 0
3 88 3 87 84 0 85 0 0 85 0 85 -85 0 -85 0 0 90 0 90 83 1 c45 1 123 2 172 3
l90 1 0 83 0 84 -172 -2 -173 -1 0 91 0 90 -85 0 -84 0 -3 -87 -3 -88 -175 -2
-175 -2 -3 -62 c-2 -35 0 -74 3 -87 6 -23 9 -24 93 -22 48 2 126 2 175 1 l87
-1 0 -90 0 -90 -90 0 -90 0 0 -85 0 -85 -90 0 -90 0 0 85 0 85 -90 0 -90 0 -2
176 -3 176 -85 2 -85 1 -3 92 -3 93 178 2 178 3 0 80 0 80 -87 3 -88 3 0 89 0
90 93 0 92 0 0 -85 c0 -47 3 -85 8 -85 4 0 41 0 82 0 l75 0 0 85 0 84 88 3 87
3 3 88 3 87 89 0 90 0 0 85 0 85 -90 0 -89 0 -3 88 -3 87 -80 0 -80 0 -5 -175
-5 -175 -175 0 -175 0 0 90 0 90 88 3 87 3 0 87 0 87 85 -3 85 -3 0 85 0 86
-172 2 -173 3 -3 88 -3 87 -89 0 -90 0 0 90 0 90 88 1 c48 0 128 1 177 2 l90
2 0 83 0 83 -344 -1 c-189 0 -346 -2 -350 -4 -3 -2 -5 -40 -3 -85 l4 -81 84 0
84 0 0 -90 0 -90 -90 0 -90 0 0 90 0 90 -85 0 -85 0 0 -90 0 -90 -180 0 -180
0 0 90 0 90 -85 0 -85 0 0 -90 0 -90 -180 0 -180 0 0 90 0 89 88 3 87 3 2 85
c1 47 2 127 2 178 l1 92 90 0 90 0 0 -90 0 -89 87 -3 87 -3 -3 -67 c-4 -115
-16 -107 180 -107 l169 -1 0 85 0 85 -85 0 -84 0 -3 88 -3 87 -87 3 -88 3 0
89 0 90 83 0 c195 1 459 1 540 1 l87 -1 0 -85 0 -85 175 0 176 0 -3 83 -3 82
-87 3 -88 3 0 84 0 85 -172 2 -173 3 -5 175 -5 175 -75 3 c-42 1 -79 0 -83 -4z
m-2487 -1144 l0 -90 -90 0 -90 0 0 90 0 90 90 0 90 0 0 -90z m360 0 l0 -90
-95 0 -95 0 0 90 0 90 95 0 95 0 0 -90z m1060 0 l0 -90 -90 0 -90 0 0 90 0 90
90 0 90 0 0 -90z m133 -364 c51 -19 76 -42 98 -94 24 -55 24 -72 -1 -131 -14
-32 -34 -56 -63 -75 -37 -24 -50 -27 -105 -24 -58 4 -66 7 -103 44 -91 92 -62
237 56 279 50 18 70 18 118 1z m993 -458 c57 -30 107 -82 129 -134 37 -89 45
-176 45 -484 l0 -300 -149 0 -150 0 -3 298 c-3 272 -5 300 -22 329 -30 49 -72
67 -141 61 -54 -5 -62 -9 -96 -46 -22 -25 -39 -56 -43 -79 -3 -21 -6 -156 -6
-301 l0 -263 -147 3 -148 3 0 460 0 460 143 3 142 3 0 -56 0 -56 31 35 c16 19
58 49 92 66 60 30 66 31 167 28 89 -3 113 -8 156 -30z m-906 -453 l0 -465
-145 0 -145 0 0 465 0 465 145 0 145 0 0 -465z m1190 -2080 l0 -94 -86 -3 -85
-3 -2 -170 -2 -170 -92 -3 -93 -3 0 86 0 85 -83 0 c-46 0 -86 2 -88 4 -2 2 -3
45 -1 95 l3 91 85 0 84 0 0 83 c0 46 3 87 6 90 4 4 85 7 180 6 l174 0 0 -94z"/>
<path d="M4660 5580 l0 -90 -90 0 -90 0 0 -85 0 -85 173 2 172 3 0 170 0 170
-82 3 -83 3 0 -91z"/>
<path d="M5008 5493 l-3 -178 -87 -3 -88 -3 3 -167 2 -167 173 -3 172 -2 -2
347 -3 348 -82 3 -83 3 -2 -178z"/>
<path d="M947 5133 c-4 -3 -7 -42 -7 -85 l0 -78 85 0 85 0 0 85 0 85 -78 0
c-43 0 -82 -3 -85 -7z"/>
<path d="M5540 5055 l0 -85 85 0 85 0 0 85 0 85 -85 0 -85 0 0 -85z"/>
<path d="M590 4875 l0 -85 85 0 85 0 0 85 0 85 -85 0 -85 0 0 -85z"/>
<path d="M3950 4875 l0 -85 85 0 85 0 0 85 0 85 -85 0 -85 0 0 -85z"/>
<path d="M5190 4875 l0 -85 85 0 84 0 3 -87 3 -88 80 0 80 0 5 168 c3 93 3
171 1 173 -2 2 -80 4 -173 4 l-168 0 0 -85z"/>
<path d="M5010 4520 l0 -260 85 0 85 0 0 90 0 90 90 0 90 0 0 85 0 85 -90 0
-90 0 0 85 0 85 -85 0 -85 0 0 -260z"/>
<path d="M590 4525 l0 -85 175 0 175 0 0 85 0 85 -175 0 -175 0 0 -85z"/>
<path d="M5540 4255 l0 -174 -87 -3 -88 -3 -3 -82 -3 -83 176 0 175 0 0 260 0
260 -85 0 -85 0 0 -175z"/>
<path d="M5894 4417 c-3 -8 -4 -45 -2 -83 l3 -69 83 -3 82 -3 0 86 0 85 -80 0
c-58 0 -82 -4 -86 -13z"/>
<path d="M1474 3887 c-3 -8 -4 -45 -2 -83 l3 -69 83 -3 82 -3 0 86 0 85 -80 0
c-58 0 -82 -4 -86 -13z"/>
<path d="M5720 3815 l0 -85 85 0 85 0 0 85 0 85 -85 0 -85 0 0 -85z"/>
<path d="M5361 3550 l0 -169 170 -3 c94 -2 173 -1 175 1 2 2 4 80 4 173 l0
168 -175 0 -174 0 0 -170z"/>
<path d="M420 3542 c-6 -2 -10 -39 -10 -83 l0 -79 85 0 86 0 -3 81 -3 81 -73
1 c-39 1 -77 1 -82 -1z"/>
<path d="M774 3541 c-5 -6 -5 -156 0 -162 2 -2 41 -3 85 -1 l81 4 0 79 c0 43
-3 79 -7 79 -52 4 -156 4 -159 1z"/>
<path d="M1473 3534 c-2 -6 -3 -43 -1 -83 l3 -73 83 -1 82 -2 0 85 0 85 -81 0
c-50 0 -83 -4 -86 -11z"/>
<path d="M5720 3285 l0 -85 85 0 85 0 0 85 0 85 -85 0 -85 0 0 -85z"/>
<path d="M1470 3099 l0 -90 -82 2 -83 2 0 -84 0 -84 168 -2 167 -3 0 175 0
175 -85 0 -85 0 0 -91z"/>
<path d="M1830 3105 l0 -86 83 3 82 3 3 83 3 82 -86 0 -85 0 0 -85z"/>
<path d="M1650 2755 l0 -85 85 0 85 0 0 85 0 85 -85 0 -85 0 0 -85z"/>
<path d="M770 2575 l0 -84 -87 -3 -88 -3 -3 -172 -2 -173 85 0 85 0 0 85 0 85
90 0 90 0 0 -90 0 -90 -85 0 -85 0 0 -85 0 -85 260 0 260 0 0 85 0 85 -90 0
-90 0 0 180 0 180 -85 0 -85 0 0 85 0 85 -85 0 -85 0 0 -85z"/>
<path d="M1300 2575 l0 -85 85 0 84 0 3 -87 3 -88 88 0 87 0 0 -92 0 -92 -87
-3 -88 -3 0 -80 0 -80 265 -5 265 -5 3 -85 3 -85 80 2 81 1 -1 169 0 168 -176
3 -175 2 0 90 0 89 88 3 87 3 0 85 0 85 -90 1 c-49 1 -129 2 -177 3 l-88 1 0
85 0 85 -170 0 -170 0 0 -85z"/>
<path d="M5724 2477 c-3 -8 -4 -47 -2 -88 l3 -74 80 0 80 0 0 85 0 85 -78 3
c-59 2 -79 0 -83 -11z"/>
<path d="M1300 2225 l0 -85 85 0 85 0 0 85 0 85 -85 0 -85 0 0 -85z"/>
<path d="M5365 2298 c-3 -7 -4 -85 -2 -173 l2 -160 82 -3 82 -3 3 88 3 88 88
3 87 3 0 84 0 85 -170 0 c-127 0 -172 -3 -175 -12z"/>
<path d="M2360 2045 l0 -85 85 0 85 0 0 85 0 85 -85 0 -85 0 0 -85z"/>
<path d="M1307 1954 c-4 -4 -7 -43 -7 -86 l0 -78 85 0 86 0 -3 83 -3 82 -75 3
c-42 1 -79 0 -83 -4z"/>
<path d="M2540 1780 l0 -180 -90 0 -90 0 0 -85 0 -84 88 -3 87 -3 3 -85 3 -85
77 2 c42 1 81 2 85 3 5 0 8 39 7 88 -1 48 -2 126 -1 175 l1 87 265 0 266 0 -3
83 -3 82 -262 3 -262 2 -3 88 -3 87 -82 3 -83 3 0 -181z"/>
<path d="M3957 1954 c-4 -4 -7 -83 -7 -176 l0 -168 85 0 85 0 -2 173 -3 172
-75 3 c-42 1 -79 0 -83 -4z"/>
<path d="M4660 1875 l0 -85 75 0 c41 0 78 0 83 0 4 0 7 37 7 83 l0 82 -82 3
-83 3 0 -86z"/>
<path d="M5017 1954 c-4 -4 -7 -83 -7 -176 l0 -168 85 0 85 0 -2 173 -3 172
-75 3 c-42 1 -79 0 -83 -4z"/>
<path d="M5365 1588 c-3 -7 -4 -123 -2 -258 l2 -245 263 -3 262 -2 0 260 0
260 -260 0 c-200 0 -262 -3 -265 -12z m355 -248 l0 -90 -95 0 -95 0 0 83 c0
46 3 87 7 90 3 4 46 7 95 7 l88 0 0 -90z"/>
<path d="M6070 1515 l0 -85 90 0 90 0 0 -90 0 -89 -87 -3 -88 -3 -3 -262 -2
-263 85 0 85 0 0 180 0 180 90 0 90 0 0 260 0 260 -175 0 -175 0 0 -85z"/>
<path d="M2892 1338 l3 -82 67 3 c108 4 108 4 108 -95 l0 -84 85 0 84 0 0 170
0 170 -175 0 -175 0 3 -82z"/>
<path d="M5012 1339 l3 -81 80 0 80 0 3 81 3 81 -86 0 -86 0 3 -81z"/>
<path d="M2717 1244 c-4 -4 -7 -43 -7 -86 l0 -78 85 0 86 0 -3 83 -3 82 -75 3
c-42 1 -79 0 -83 -4z"/>
<path d="M2890 985 l0 -85 85 0 85 0 0 85 0 85 -85 0 -85 0 0 -85z"/>
<path d="M5362 808 l3 -83 83 0 84 0 1 83 2 82 -88 0 -88 0 3 -82z"/>
<path d="M4480 455 l0 -85 173 2 172 3 0 80 0 80 -172 3 -173 2 0 -85z"/>
<path d="M5886 6544 c-58 -18 -137 -94 -158 -151 -19 -54 -19 -512 0 -565 13
-35 95 -129 110 -126 4 1 21 -5 37 -13 23 -11 86 -14 275 -14 l245 0 58 29
c63 31 109 83 128 145 7 23 9 130 7 291 -3 281 -4 286 -71 352 -58 58 -113 68
-363 67 -165 0 -231 -4 -268 -15z m465 -187 c60 -40 69 -72 69 -243 0 -141 -2
-153 -23 -185 -12 -18 -38 -44 -56 -56 -32 -21 -45 -23 -183 -23 -162 0 -195
8 -238 54 -24 27 -25 33 -28 193 -4 189 1 211 61 254 l40 29 162 0 c152 0 164
-1 196 -23z"/>
<path d="M566 1230 c-59 -23 -89 -50 -124 -110 l-27 -45 0 -270 0 -270 34 -53
c21 -33 51 -63 80 -80 l46 -27 249 -3 c284 -4 320 3 389 71 72 72 77 97 77
370 -1 171 -5 253 -14 278 -20 56 -63 105 -114 131 -45 22 -58 23 -297 25
-227 2 -255 1 -299 -17z m457 -164 c18 -7 45 -28 60 -45 l27 -33 0 -170 c0
-190 -4 -205 -68 -248 -34 -24 -42 -25 -197 -25 -161 0 -162 0 -198 28 -57 43
-61 57 -65 222 -3 141 -2 153 20 195 17 33 35 51 68 68 39 20 59 22 182 22 95
0 149 -4 171 -14z"/>
</g>
</svg>
